<?xml version="1.0" encoding="UTF-8" standalone="no"?>
<svg
   xmlns:dc="http://purl.org/dc/elements/1.1/"
   xmlns:cc="http://creativecommons.org/ns#"
   xmlns:rdf="http://www.w3.org/1999/02/22-rdf-syntax-ns#"
   xmlns:svg="http://www.w3.org/2000/svg"
   xmlns="http://www.w3.org/2000/svg"
   xmlns:sodipodi="http://sodipodi.sourceforge.net/DTD/sodipodi-0.dtd"
   xmlns:inkscape="http://www.inkscape.org/namespaces/inkscape"
   version="1.1"
   id="Capa_1"
   x="0px"
   y="0px"
   viewBox="0 0 384.97 267.97"
   xml:space="preserve"
   sodipodi:docname="nav-icon.svg"
   inkscape:version="1.0 (4035a4fb49, 2020-05-01)"
   width="384.97"
   height="267.97"><metadata
   id="metadata58"><rdf:RDF><cc:Work
       rdf:about=""><dc:format>image/svg+xml</dc:format><dc:type
         rdf:resource="http://purl.org/dc/dcmitype/StillImage" /><dc:title /></cc:Work></rdf:RDF></metadata><defs
   id="defs56">
	
	
	
	
	
	
	

	
	
	
	
	
	
		
		
		
	</defs><sodipodi:namedview
   pagecolor="#ffffff"
   bordercolor="#666666"
   borderopacity="1"
   objecttolerance="10"
   gridtolerance="10"
   guidetolerance="10"
   inkscape:pageopacity="0"
   inkscape:pageshadow="2"
   inkscape:window-width="1366"
   inkscape:window-height="745"
   id="namedview54"
   showgrid="false"
   inkscape:zoom="0.61303478"
   inkscape:cx="70.142839"
   inkscape:cy="192.485"
   inkscape:window-x="-8"
   inkscape:window-y="-8"
   inkscape:window-maximized="1"
   inkscape:current-layer="Capa_1"
   inkscape:document-rotation="0" />

<g
   id="g23"
   transform="translate(0,-117.0001)">
</g>
<g
   id="g25"
   transform="translate(0,-117.0001)">
</g>
<g
   id="g27"
   transform="translate(0,-117.0001)">
</g>
<g
   id="g29"
   transform="translate(0,-117.0001)">
</g>
<g
   id="g31"
   transform="translate(0,-117.0001)">
</g>
<g
   id="g33"
   transform="translate(0,-117.0001)">
</g>
<g
   id="g35"
   transform="translate(0,-117.0001)">
</g>
<g
   id="g37"
   transform="translate(0,-117.0001)">
</g>
<g
   id="g39"
   transform="translate(0,-117.0001)">
</g>
<g
   id="g41"
   transform="translate(0,-117.0001)">
</g>
<g
   id="g43"
   transform="translate(0,-117.0001)">
</g>
<g
   id="g45"
   transform="translate(0,-117.0001)">
</g>
<g
   id="g47"
   transform="translate(0,-117.0001)">
</g>
<g
   id="g49"
   transform="translate(0,-117.0001)">
</g>
<g
   id="g51"
   transform="translate(0,-117.0001)">
</g>
<g
   transform="translate(-5.0091465e-4,-1.0000009)"
   id="g862"><path
     style="stroke-width:0.978887"
     inkscape:connector-curvature="0"
     id="path2"
     d="M 66.525051,45.273013 H 374.69783 c 5.67061,0 10.27217,-6.048628 10.27217,-13.500001 0,-7.452493 -4.60241,-13.499999 -10.27217,-13.499999 H 66.525051 c -5.670613,0 -10.272169,6.048628 -10.272169,13.499999 0,7.451373 4.60241,13.500001 10.272169,13.500001 z" /><path
     inkscape:connector-curvature="0"
     id="path4"
     d="M 372.94,121.485 H 12.031002 c -6.640999,0 -12.02999895,6.04863 -12.02999895,13.5 0,7.45137 5.38999995,13.5 12.02999895,13.5 H 372.94 c 6.641,0 12.03,-6.04863 12.03,-13.5 0,-7.45137 -5.389,-13.5 -12.03,-13.5 z"
     style="stroke-width:1.05934" /><path
     style="stroke-width:0.819341"
     d="M 377.7734,224.69699 H 161.86994 c -3.97279,0 -7.19661,6.04863 -7.19661,13.5 0,7.45137 3.22441,13.5 7.19661,13.5 H 377.7734 c 3.97278,0 7.1966,-6.04863 7.1966,-13.5 0,-7.45137 -3.22382,-13.5 -7.1966,-13.5 z"
     id="path907"
     inkscape:connector-curvature="0" /></g></svg>
